<svg xmlns="http://www.w3.org/2000/svg" viewBox="0 0 360 222"><title>project-placeholder</title><rect width="360" height="222" style="fill:#f5f5f5"/><path d="M115.89,123.27H110.7L97.39,102.09v21.18H92.21V93.42h5.19l13.35,21.27V93.42h5.15Z" style="fill:#9e9e9e"/><path d="M120.61,112a13.72,13.72,0,0,1,.71-4.48,10.63,10.63,0,0,1,2-3.58,9.3,9.3,0,0,1,3.23-2.38,10.4,10.4,0,0,1,4.33-.86,10.6,10.6,0,0,1,4.37.86,9.26,9.26,0,0,1,3.25,2.38,10.5,10.5,0,0,1,2,3.58,13.9,13.9,0,0,1,.7,4.48v.43a14,14,0,0,1-.7,4.49,10.37,10.37,0,0,1-2,3.58,9.23,9.23,0,0,1-3.24,2.36,11.52,11.52,0,0,1-8.7,0,9.23,9.23,0,0,1-3.24-2.36,10.5,10.5,0,0,1-2-3.58,13.81,13.81,0,0,1-.71-4.49Zm5,.43a12.56,12.56,0,0,0,.31,2.83,7.07,7.07,0,0,0,1,2.33,4.64,4.64,0,0,0,4.08,2.14,4.6,4.6,0,0,0,4.05-2.14,7.38,7.38,0,0,0,1-2.33,12.17,12.17,0,0,0,.32-2.83V112a12,12,0,0,0-.32-2.8,7.24,7.24,0,0,0-1-2.32,5,5,0,0,0-1.67-1.59,4.68,4.68,0,0,0-2.41-.59,4.57,4.57,0,0,0-2.39.59,5.09,5.09,0,0,0-1.65,1.59,7.08,7.08,0,0,0-1,2.32,12.33,12.33,0,0,0-.31,2.8Z" style="fill:#9e9e9e"/><path d="M161.87,123.27H156.7V93.42h5.17Z" style="fill:#9e9e9e"/><path d="M172.45,101.08l.14,2.32a7.65,7.65,0,0,1,2.7-2,8.92,8.92,0,0,1,3.7-.72,7.92,7.92,0,0,1,3.63.81,5.45,5.45,0,0,1,2.46,2.59,8,8,0,0,1,6.81-3.4,9.51,9.51,0,0,1,3.08.46,5.52,5.52,0,0,1,2.29,1.46,6.65,6.65,0,0,1,1.44,2.55,12.32,12.32,0,0,1,.5,3.75v14.38h-5v-14.4a6.2,6.2,0,0,0-.28-2,3,3,0,0,0-.8-1.26,2.9,2.9,0,0,0-1.25-.66,6.74,6.74,0,0,0-1.65-.18,4.15,4.15,0,0,0-2.78.91,4.81,4.81,0,0,0-1.51,2.39c0,.07,0,.14,0,.22s0,.15,0,.22v14.79h-5V108.94a6.07,6.07,0,0,0-.28-2,3.15,3.15,0,0,0-.8-1.29,3.06,3.06,0,0,0-1.26-.71,5.93,5.93,0,0,0-1.66-.22,4.84,4.84,0,0,0-2.64.66,4.47,4.47,0,0,0-1.61,1.78v16.08h-5V101.08Z" style="fill:#9e9e9e"/><path d="M217.57,123.27a4.14,4.14,0,0,1-.34-.92q-.13-.53-.24-1.15a8.85,8.85,0,0,1-1.1,1,7.53,7.53,0,0,1-1.33.79,7.94,7.94,0,0,1-1.58.53,8.12,8.12,0,0,1-1.82.2,9,9,0,0,1-3.06-.5,7.17,7.17,0,0,1-2.39-1.39,6.46,6.46,0,0,1-1.56-2.1,6.14,6.14,0,0,1-.56-2.62,7.06,7.06,0,0,1,.68-3.16,6.11,6.11,0,0,1,2-2.3,9.44,9.44,0,0,1,3.17-1.4,17.24,17.24,0,0,1,4.28-.48h3.14v-1.46a3.89,3.89,0,0,0-1-2.76,3.82,3.82,0,0,0-2.93-1,5.11,5.11,0,0,0-1.6.24,3.88,3.88,0,0,0-1.22.64,2.82,2.82,0,0,0-.78,1,2.62,2.62,0,0,0-.28,1.19h-5a5.35,5.35,0,0,1,.65-2.53,7,7,0,0,1,1.83-2.17,9.38,9.38,0,0,1,2.88-1.53,12.66,12.66,0,0,1,7.23-.09,7.76,7.76,0,0,1,2.73,1.44,6.47,6.47,0,0,1,1.79,2.38,8.12,8.12,0,0,1,.63,3.33v9.84a11.34,11.34,0,0,0,.84,4.78v.35Zm-5.48-3.59a5.56,5.56,0,0,0,1.61-.23,5.8,5.8,0,0,0,1.35-.59,5,5,0,0,0,1.06-.85,4.74,4.74,0,0,0,.72-1v-4.18h-2.69a7.35,7.35,0,0,0-4.16,1,3.12,3.12,0,0,0-1.39,2.73,3.39,3.39,0,0,0,.23,1.25,2.68,2.68,0,0,0,.68,1,3.19,3.19,0,0,0,1.1.66A4.39,4.39,0,0,0,212.09,119.69Z" style="fill:#9e9e9e"/><path d="M226.16,112a16.31,16.31,0,0,1,.62-4.61,10.75,10.75,0,0,1,1.77-3.59,8.52,8.52,0,0,1,10-2.45,7.17,7.17,0,0,1,2.5,2l.23-2.24h4.49v21.57a10.12,10.12,0,0,1-.74,4,8.17,8.17,0,0,1-2.06,2.93,9,9,0,0,1-3.18,1.82,12.7,12.7,0,0,1-4.07.63,12.51,12.51,0,0,1-4.33-.83,11.21,11.21,0,0,1-2.19-1.14,7,7,0,0,1-1.78-1.7l2.36-3a7.49,7.49,0,0,0,2.68,2.09,7.35,7.35,0,0,0,3,.64,5.5,5.5,0,0,0,3.92-1.34,5.15,5.15,0,0,0,1.44-3.95v-1.5a7,7,0,0,1-2.46,1.78,8.17,8.17,0,0,1-3.28.62,7.8,7.8,0,0,1-3.66-.85,8.44,8.44,0,0,1-2.79-2.35,10.79,10.79,0,0,1-1.77-3.56,15.6,15.6,0,0,1-.62-4.48Zm5,.43a12.46,12.46,0,0,0,.3,2.78,7.09,7.09,0,0,0,.93,2.29,4.74,4.74,0,0,0,1.6,1.55,4.51,4.51,0,0,0,2.32.56,4.88,4.88,0,0,0,2.75-.71,5.36,5.36,0,0,0,1.72-1.88v-9.76a5.05,5.05,0,0,0-1.73-1.85,5,5,0,0,0-2.7-.68,4.56,4.56,0,0,0-2.34.57,4.68,4.68,0,0,0-1.61,1.56,7.39,7.39,0,0,0-.93,2.31,12.42,12.42,0,0,0-.31,2.82Z" style="fill:#9e9e9e"/><path d="M260.62,123.68a11.42,11.42,0,0,1-4.43-.82,9.75,9.75,0,0,1-3.34-2.26,9.87,9.87,0,0,1-2.11-3.4A12,12,0,0,1,250,113v-.82a13.7,13.7,0,0,1,.78-4.75,10.84,10.84,0,0,1,2.13-3.61,9.4,9.4,0,0,1,3.19-2.3,9.67,9.67,0,0,1,3.95-.81,10.09,10.09,0,0,1,4.2.81,7.92,7.92,0,0,1,3,2.27,9.74,9.74,0,0,1,1.74,3.47,16,16,0,0,1,.57,4.41v2.13H255a8,8,0,0,0,.54,2.38,5.85,5.85,0,0,0,1.2,1.88,5.51,5.51,0,0,0,1.79,1.24,5.83,5.83,0,0,0,2.35.45,6.65,6.65,0,0,0,3.21-.74,7.53,7.53,0,0,0,2.37-2l2.69,2.56a9.14,9.14,0,0,1-1.32,1.55,9,9,0,0,1-1.85,1.33,10.64,10.64,0,0,1-2.39.94A11.52,11.52,0,0,1,260.62,123.68Zm-.59-19a4.2,4.2,0,0,0-3.31,1.44,7.45,7.45,0,0,0-1.61,4h9.5v-.37a9.16,9.16,0,0,0-.32-1.9,4.86,4.86,0,0,0-.79-1.62,3.82,3.82,0,0,0-1.38-1.13A4.67,4.67,0,0,0,260,104.67Z" style="fill:#9e9e9e"/></svg>